# xmcd CD database file
#
# Track frame offsets:
#	225
#	24416
#	51256
#	80482
#	107228
#	134295
#	166873
#	190662
#
# Disc length: 2824 seconds
#
# Revision: 0
# Processed by: cddbd v1.5.2PL0 Copyright (c) Steve Scherf et al.
# Submitted via: CDex 1.51
#
DISCID=610b0508
DTITLE=Warne Marsh and Red Mitchell - Duo
DYEAR=1900
DGENRE=Jazz
TTITLE0=It;s Your Or No One 
TTITLE1=Gone With The Wind 
TTITLE2=Everything Happens To Me
TTITLE3=Cherokee 
TTITLE4=Sippin' At Bells 
TTITLE5=Easy Living 
TTITLE6=These Foolish Things 
TTITLE7=Topsy 
EXTD=
EXTT0=
EXTT1=
EXTT2=
EXTT3=
EXTT4=
EXTT5=
EXTT6=
EXTT7=
PLAYORDER=
